<svg xmlns="http://www.w3.org/2000/svg" viewBox="0 0 128 128" id="contract">
  <path d="M18 91.12488V76.58673L4.07227 27.91895a1.81246 1.81246 0 0 1 1.18848-2.23926L18 21.84656V17.6698L4.1084 21.84961A5.82861 5.82861 0 0 0 .22656 29.019zM123.8916 21.84961L110 17.6698v4.17676l12.73926 3.83313a1.81215 1.81215 0 0 1 1.18848 2.23877L110 76.58673V91.12506l17.77344-62.10651A5.8283 5.8283 0 0 0 123.8916 21.84961zM102.43 108.5H96.07v-.48a5.1764 5.1764 0 0 0-.07-.89 3.94731 3.94731 0 0 0-2.88-3.62 25.39284 25.39284 0 0 1 2.68-7.94l.04-.07a12.44725 12.44725 0 0 0 3.71-8.91 12.63 12.63 0 1 0-21.26 9.19l.03.05A25.61366 25.61366 0 0 1 80.88 103.51c-1.71.31995-2.95 2.15-2.95 4.50995v.48H71.57A4.57293 4.57293 0 0 0 67 113.06v6.38a4.48991 4.48991 0 0 0 .63 2.31A4.60036 4.60036 0 0 0 71.57 124h30.86a4.57293 4.57293 0 0 0 4.57-4.56v-6.38A4.57293 4.57293 0 0 0 102.43 108.5zm.57 10.94a.56769.56769 0 0 1-.57.56H71.57a.5487.5487 0 0 1-.4-.17.522.522 0 0 1-.17-.39v-6.38a.56769.56769 0 0 1 .57-.56h8.36a2.00587 2.00587 0 0 0 2-2v-2.48a1.9636 1.9636 0 0 1 .07-.56h1.14a1.98531 1.98531 0 0 0 1.48-.66 1.95229 1.95229 0 0 0 .51-1.53 29.14808 29.14808 0 0 0-3.2-11.16l-.2-.41a1.95835 1.95835 0 0 0-.49-.65 8.606 8.606 0 1 1 14.31-6.46 8.45381 8.45381 0 0 1-2.72 6.25 2.08168 2.08168 0 0 0-.43.59l-.19.38a29.50791 29.50791 0 0 0-3.34 11.46 1.95229 1.95229 0 0 0 .51 1.53 1.98531 1.98531 0 0 0 1.48.66H92a1.9636 1.9636 0 0 1 .07.56v2.48a2.00587 2.00587 0 0 0 2 2h8.36a.56769.56769 0 0 1 .57.56z"></path>
  <path d="M28,124H64.33l.00012-.00085A8.493,8.493,0,0,1,63,119.43848v-6.377A8.576,8.576,0,0,1,71.57129,104.5h2.99609a8.44167,8.44167,0,0,1,1.80762-2.85889,23.35561,23.35561,0,0,0-1.3916-3.50781,16.5563,16.5563,0,0,1-4.69727-11.54053c0-.53766.03058-1.06805.08093-1.59277H40a2,2,0,0,1,0-4H71.2793a16.52478,16.52478,0,0,1,2.09515-3.9942L73.36676,77H40a2,2,0,0,1,0-4H77.40869A16.59181,16.59181,0,0,1,99.16016,97.812a22.99763,22.99763,0,0,0-1.542,3.8208A8.45515,8.45515,0,0,1,99.43262,104.5H102.43l.01111.00061a8.61452,8.61452,0,0,1,.9151.0517c.03284.0036.06451.0108.09723.01483A8.49423,8.49423,0,0,1,106,105.28857V10a6.00476,6.00476,0,0,0-6-6H28a6.00476,6.00476,0,0,0-6,6V118A6.00476,6.00476,0,0,0,28,124ZM40,17H88a2,2,0,0,1,0,4H40a2,2,0,0,1,0-4Zm0,8H88a2,2,0,0,1,0,4H40a2,2,0,0,1,0-4Zm0,8H88a2,2,0,0,1,0,4H40a2,2,0,0,1,0-4Zm0,8H88a2,2,0,0,1,0,4H40a2,2,0,0,1,0-4Zm0,8H88a2,2,0,0,1,0,4H40a2,2,0,0,1,0-4Zm0,8H88a2,2,0,0,1,0,4H40a2,2,0,0,1,0-4Zm0,8H88a2,2,0,0,1,0,4H40a2,2,0,0,1,0-4ZM38.45,98.32a1.99735,1.99735,0,1,1,3.73,1.43c-.93,2.44-1.44,5.44-1.07,6.25a1.86563,1.86563,0,0,0,.29-.02c1.61-.25,2.41-1.68,3.54-4.01,1.04-2.17,2.23-4.62,4.98-4.92,3.42-.36,4.4,2.97,4.92,4.77.06.21.14.47.21.72a17.26844,17.26844,0,0,0,1.8-4.26c.9-2.74,1.75-5.32,3.88-6.08a3.68267,3.68267,0,0,1,3.33.49,1.99838,1.99838,0,0,1-2.05,3.43,18.02967,18.02967,0,0,0-1.36,3.41c-.9,2.72-1.82,5.53-3.93005,6.83a3.43437,3.43437,0,0,1-3.14.46c-1.64-.63-2.14-2.36-2.58-3.88a8.69856,8.69856,0,0,0-.7-1.9c-.56.19-1.23,1.56-1.76,2.67-1.15,2.38-2.73,5.65-6.54,6.22a5.12431,5.12431,0,0,1-.85.07,3.85717,3.85717,0,0,1-3.12-1.42C35.81,105.82,37.79,100.03,38.45,98.32Z"></path>
</svg>
